<?xml version="1.0" standalone="no"?>
<!DOCTYPE svg PUBLIC "-//W3C//DTD SVG 20010904//EN"
 "http://www.w3.org/TR/2001/REC-SVG-20010904/DTD/svg10.dtd">
<svg version="1.0" xmlns="http://www.w3.org/2000/svg"
 width="511.000000pt" height="488.000000pt" viewBox="0 0 511.000000 488.000000"
 preserveAspectRatio="xMidYMid meet">

<g transform="translate(0.000000,488.000000) scale(0.100000,-0.100000)"
fill="#000000" stroke="none">
<path d="M2590 4712 c0 -4 -10 -12 -22 -17 -22 -9 -23 -16 -26 -133 -3 -141 4
-157 68 -157 65 0 75 21 75 153 l0 114 -30 24 c-29 23 -65 32 -65 16z"/>
<path d="M3143 4462 c-76 -83 -82 -94 -83 -128 0 -42 31 -68 78 -67 31 1 44 9
86 55 55 61 86 106 86 128 0 31 -46 70 -81 70 -29 0 -42 -9 -86 -58z"/>
<path d="M1979 4484 c-29 -35 -36 -58 -25 -89 9 -29 29 -55 41 -55 5 0 18 -10
80 -67 31 -30 66 -29 99 2 52 48 29 97 -92 198 -38 30 -83 35 -103 11z"/>
<path d="M2530 4185 c-121 -19 -150 -26 -156 -36 -3 -5 -16 -9 -30 -9 -13 0
-24 -3 -24 -7 0 -5 -20 -16 -45 -26 -25 -11 -45 -23 -45 -28 0 -5 -6 -9 -14
-9 -8 0 -16 -3 -18 -7 -1 -5 -25 -26 -53 -48 -70 -56 -85 -71 -136 -145 -48
-69 -88 -149 -106 -215 -29 -104 -33 -127 -33 -197 l0 -74 -45 10 c-25 6 -45
14 -45 18 0 5 -9 8 -20 8 -10 0 -32 5 -47 11 -15 6 -37 15 -48 20 -11 4 -45
15 -75 24 -30 9 -64 20 -75 25 -11 4 -40 14 -65 21 -25 7 -49 16 -55 19 -5 4
-24 10 -42 13 l-31 6 5 -59 6 -60 -31 0 c-17 0 -34 5 -37 10 -3 6 -17 10 -31
10 -24 0 -24 -1 -19 -67 3 -38 8 -81 11 -98 3 -16 10 -75 16 -130 5 -55 14
-140 19 -190 5 -49 12 -129 15 -177 l6 -87 -29 -7 c-72 -18 -173 -116 -173
-169 0 -8 -4 -15 -10 -15 -5 0 -10 -11 -10 -25 0 -14 -5 -45 -12 -69 -9 -35
-9 -63 1 -128 13 -81 30 -148 42 -158 3 -3 11 -20 18 -37 12 -30 21 -43 62
-90 39 -44 138 -103 174 -103 21 0 24 -7 33 -77 6 -43 14 -109 17 -148 3 -38
11 -104 17 -147 12 -81 26 -98 83 -98 13 0 26 -4 29 -9 3 -5 20 -11 38 -13 45
-7 129 -29 150 -39 10 -5 26 -9 36 -9 10 0 30 -5 44 -12 25 -12 25 -14 32
-153 3 -77 13 -203 22 -280 8 -77 18 -162 21 -190 2 -27 9 -54 14 -60 5 -5 9
-24 9 -42 0 -17 4 -42 9 -55 5 -13 17 -59 27 -103 10 -44 21 -84 26 -90 4 -5
8 -19 8 -31 0 -13 5 -26 10 -29 6 -3 10 -15 10 -26 0 -10 4 -27 9 -37 5 -9 23
-46 39 -82 17 -36 42 -78 56 -95 14 -16 26 -33 26 -36 0 -3 18 -15 41 -27 31
-17 58 -22 115 -22 119 0 166 37 222 170 6 14 13 43 16 65 13 96 19 123 41
171 13 28 38 63 57 78 18 15 41 34 51 42 9 8 23 14 30 14 7 0 17 4 23 8 18 16
89 33 167 41 l77 7 0 -217 c0 -135 4 -220 10 -224 6 -3 10 -19 10 -36 0 -16 5
-29 10 -29 6 0 10 -8 10 -18 0 -10 13 -31 30 -45 28 -26 35 -27 135 -27 63 0
105 4 105 10 0 6 6 10 14 10 17 0 109 90 133 130 9 16 21 30 25 30 4 0 8 4 8
10 0 5 12 35 26 67 14 32 31 69 36 83 6 14 13 32 17 40 4 8 20 56 35 105 16
50 32 99 36 110 5 11 11 31 14 45 3 14 12 54 21 90 8 36 18 83 21 105 3 22 9
49 14 60 5 11 11 40 14 65 3 25 10 77 16 115 18 125 29 248 30 330 0 83 15
125 46 125 8 0 24 5 37 12 12 6 29 14 37 18 13 6 16 49 20 266 3 142 7 260 8
262 1 1 13 2 26 2 13 0 26 3 28 8 2 4 21 16 43 27 55 27 159 132 183 186 35
77 48 161 33 221 -18 78 -44 148 -53 148 -4 0 -8 6 -8 13 0 20 -85 103 -137
134 -26 15 -66 33 -88 38 l-40 10 -3 343 -2 342 -28 -6 c-15 -4 -31 -11 -37
-15 -5 -5 -24 -9 -42 -9 l-33 0 0 55 c0 58 -9 66 -48 46 -37 -20 -129 -61
-136 -61 -4 0 -36 -14 -72 -31 -36 -17 -67 -29 -71 -26 -5 6 -38 131 -50 190
-3 15 -9 27 -14 27 -5 0 -9 7 -9 15 0 8 -16 39 -35 69 -19 30 -35 57 -35 60 0
7 -49 62 -74 84 -10 10 -31 29 -45 43 -14 14 -42 36 -61 49 -19 13 -37 27 -40
30 -3 3 -32 19 -65 34 -33 16 -68 32 -77 37 -10 5 -29 9 -43 9 -14 0 -25 4
-25 9 0 4 -31 11 -68 14 -38 4 -82 9 -98 11 -16 3 -67 -2 -114 -9z m204 -155
c80 -13 146 -32 146 -42 0 -5 4 -8 10 -8 21 0 127 -76 170 -121 87 -93 151
-226 163 -343 5 -49 3 -59 -16 -76 -11 -11 -26 -20 -33 -20 -6 0 -38 -11 -70
-25 -95 -41 -103 -45 -126 -54 -13 -5 -44 -18 -70 -30 -26 -12 -51 -21 -54
-21 -4 0 -30 -11 -58 -24 -102 -47 -174 -76 -190 -76 -9 0 -16 -4 -16 -10 0
-5 -20 -10 -45 -10 -25 0 -45 4 -45 8 0 7 -48 21 -132 39 -16 3 -28 9 -28 14
0 5 -11 9 -25 9 -14 0 -33 4 -43 9 -22 12 -184 61 -201 61 -7 0 -20 8 -29 17
-14 14 -17 37 -16 135 0 77 4 122 12 130 7 7 12 20 12 30 0 10 4 26 9 36 5 9
17 34 27 55 11 21 27 47 37 57 9 11 17 23 17 28 0 11 108 122 119 122 4 0 16
8 27 18 10 9 30 22 44 28 14 6 45 21 70 33 49 23 199 51 240 45 14 -2 56 -8
94 -14z m966 -959 l0 -278 -48 -49 c-76 -77 -112 -174 -112 -303 0 -79 19
-191 32 -191 4 0 8 -9 8 -20 0 -11 5 -20 10 -20 6 0 10 -6 10 -13 0 -7 23 -33
50 -57 l50 -44 0 -201 c0 -110 -4 -205 -8 -211 -4 -6 -18 -15 -32 -18 -14 -4
-44 -16 -67 -27 -24 -10 -47 -19 -53 -19 -6 0 -18 -4 -28 -9 -27 -15 -83 -38
-127 -52 -22 -7 -44 -17 -50 -21 -5 -4 -17 -8 -27 -8 -10 0 -18 -4 -18 -10 0
-5 -9 -10 -19 -10 -11 0 -23 -4 -26 -10 -3 -5 -13 -10 -22 -10 -14 0 -66 -20
-105 -41 -10 -5 -27 -9 -38 -9 -11 0 -20 -4 -20 -10 0 -5 -6 -10 -14 -10 -8 0
-43 -12 -78 -26 -63 -26 -88 -36 -130 -53 -13 -5 -35 -13 -50 -19 -14 -6 -29
-8 -32 -5 -3 4 -6 33 -6 65 0 32 -4 100 -10 151 -5 51 -15 162 -21 247 -14
193 -26 349 -39 510 -5 69 -14 179 -19 245 -5 66 -15 193 -22 283 -15 189 -18
179 81 207 36 10 69 22 75 27 5 4 19 8 31 8 13 0 26 5 29 10 3 6 16 10 29 10
12 0 26 4 32 8 5 5 38 17 74 27 36 10 69 22 74 27 6 4 20 8 32 8 13 0 26 5 29
10 3 6 15 10 26 10 10 0 27 4 37 9 9 5 44 17 77 27 33 10 64 22 70 26 5 4 19
8 31 8 13 0 26 5 29 10 3 6 15 10 26 10 10 0 27 4 37 9 9 5 58 22 107 37 50
15 94 31 100 36 33 28 35 12 35 -271z m-2266 169 c11 0 33 -5 50 -10 31 -10
180 -47 226 -57 14 -2 34 -8 45 -13 11 -4 79 -22 150 -40 166 -41 180 -44 370
-90 50 -12 98 -26 107 -31 10 -5 28 -9 40 -9 45 -1 55 -19 62 -120 4 -52 12
-151 17 -220 6 -69 14 -177 19 -240 21 -288 49 -643 56 -715 3 -33 9 -118 14
-190 6 -71 13 -147 16 -167 6 -35 4 -38 -17 -38 -13 0 -58 10 -99 21 -41 12
-86 23 -100 26 -14 2 -34 8 -45 13 -11 5 -31 11 -45 13 -14 3 -70 17 -125 32
-55 15 -115 29 -133 32 -18 3 -35 9 -38 14 -3 5 -18 9 -34 9 -16 0 -31 4 -34
9 -3 5 -27 12 -52 16 -26 3 -56 10 -68 15 -11 4 -40 13 -63 19 -108 28 -130
34 -158 44 -16 6 -32 12 -34 14 -6 4 -19 137 -27 264 l-6 96 32 13 c38 16 130
104 130 125 0 8 5 15 10 15 6 0 10 8 10 18 0 10 5 23 12 30 17 17 18 256 1
273 -7 7 -13 23 -13 36 0 13 -4 23 -10 23 -5 0 -10 5 -10 10 0 22 -61 84 -99
101 -17 8 -31 17 -31 21 0 5 -7 8 -15 8 -8 0 -23 4 -33 9 -9 5 -29 14 -43 21
-24 11 -28 20 -33 79 -4 36 -11 104 -16 151 -5 47 -13 135 -19 195 -6 61 -13
122 -15 137 -7 36 3 63 17 49 6 -6 20 -11 31 -11z m2486 -550 c0 -5 8 -11 18
-14 23 -8 72 -84 72 -112 0 -13 5 -26 10 -29 12 -8 13 -79 1 -103 -52 -105
-88 -145 -159 -178 -61 -28 -65 -28 -94 -11 -34 18 -44 36 -62 99 -20 71 -20
109 -2 169 27 88 72 147 140 181 28 15 76 13 76 -2z m-2563 -165 c193 -91 178
-81 203 -129 10 -19 15 -58 15 -111 0 -115 -28 -165 -119 -210 -51 -25 -106
-33 -106 -15 0 6 -6 10 -14 10 -8 0 -30 15 -50 34 -107 104 -124 351 -30 425
34 26 36 26 101 -4z m2183 -1302 c-1 -70 -36 -292 -68 -428 -27 -114 -34 -141
-43 -157 -5 -10 -9 -29 -9 -42 0 -14 -4 -28 -10 -31 -5 -3 -10 -17 -10 -30 0
-13 -4 -26 -9 -29 -4 -3 -11 -19 -14 -35 -7 -33 -64 -168 -77 -181 -3 -3 -14
-21 -24 -40 -37 -66 -93 -110 -139 -110 -35 0 -37 20 -37 326 l0 264 -27 11
c-33 13 -293 3 -307 -11 -6 -6 -23 -10 -38 -10 -16 0 -36 -4 -46 -9 -9 -5 -43
-22 -75 -38 -131 -63 -225 -193 -247 -343 -21 -138 -34 -168 -74 -178 -53 -14
-81 4 -117 78 -49 102 -79 184 -79 220 0 10 -4 22 -10 25 -5 3 -10 19 -10 35
0 16 -4 32 -10 35 -6 3 -10 22 -10 41 0 19 -4 42 -9 52 -5 9 -17 71 -26 137
-9 66 -20 148 -26 181 -5 34 -9 91 -9 128 0 54 3 66 16 66 19 0 140 -29 169
-41 11 -4 32 -10 48 -13 15 -3 39 -9 55 -12 15 -3 36 -9 47 -14 30 -12 194
-52 238 -57 20 -3 37 -9 37 -13 0 -4 17 -10 38 -13 20 -2 71 -13 112 -25 69
-18 78 -19 115 -4 22 8 44 19 49 24 6 4 18 8 28 8 10 0 18 5 18 10 0 6 9 10
19 10 11 0 22 4 25 9 3 5 18 12 33 16 15 3 54 19 88 34 33 16 78 36 100 46 22
10 58 26 79 36 22 11 46 19 53 19 7 0 13 5 13 10 0 6 6 10 13 10 14 0 82 29
127 54 37 21 40 19 40 -21z"/>
</g>
</svg>
